<svg id="Capa_1" data-name="Capa 1" xmlns="http://www.w3.org/2000/svg" viewBox="0 0 1080 1080"><defs><style>.cls-1{fill:#fff;}</style></defs><path class="cls-1" d="M453.54,406.78c-2.18,13.1-5.15,25.31-6.09,37.68-2.64,34.51,23.95,65.17,58.31,68.23,35.58,3.16,67.92-29.32,65.32-66.1-.76-10.82-3-21.53-4.54-32.28-.3-2-.58-4.05-1-6.81,14.13,0,27.56,0,41,0,4.5,0,9,.17,13.49.24,9.75.16,13.81,3.73,15.4,13.62,7.42,46.29-2.86,86.07-42.36,115.1-.37.26-.56.75-1.26,1.74a74.74,74.74,0,0,0,6.28,5c24.32,15.69,36.71,38.62,38.72,66.83,4.24,59.63-28.56,104.33-87.31,119-45.83,11.45-88.9,4.91-127.28-23.66C397.44,687,385.32,661,382.36,630.65c-1-10.09,1.84-12.8,12-12.75,13,.06,26,.21,39.07.34,7,.07,12.27,3.82,14,10.06,7.71,27.39,27.79,38.73,53.84,42.07a75.21,75.21,0,0,0,42.25-6.55c18.16-8.57,28-25.24,26.69-45.25-1.3-20.34-12.57-36.14-32.3-41.2-13.84-3.54-28.41-5.09-42.73-5.74-57.5-2.61-100.79-39.79-111.31-96.38-3.51-18.83-3.89-37.62,0-56.43,1.38-6.7,4.95-11.79,12.1-11.92C415.28,406.54,434.62,406.78,453.54,406.78Z"/><path class="cls-1" d="M29.49,510.28c17.79,9.71,35.08,19,52.07,28.7,1.71,1,2.53,5.09,2.31,7.63C80.59,584,92.3,615.73,120,641.06c34.39,31.45,85.17,37.24,126.24,15s63.62-68,56.43-114.72C295.85,497,260,459,215.66,451c-12.81-2.3-26.32-.59-39.51-1-2.69-.08-6.67-.45-7.82-2.18-10.83-16.31-21.17-32.94-31.68-49.53C184,377.89,267.37,382,323.37,445.72s57.68,157.21,4.77,222.4C275.87,732.51,185,750.8,112.68,711.36A172.19,172.19,0,0,1,29.49,510.28Z"/><path class="cls-1" d="M72.79,483.46A36.56,36.56,0,0,1,73,410.34c21,.07,37,15.89,36.92,36.58A36.32,36.32,0,0,1,72.79,483.46Z"/><path class="cls-1" d="M845.8,727.45V576.65c-3.59,6-6.35,10.43-9,15C829,604.86,821.14,618,813.65,631.45c-3.47,6.21-7.33,7.34-13.88,4.31-50.58-23.43-101.31-46.58-152-69.86-12.24-5.62-12.45-7.72-5.64-18.93q19.65-32.31,38.36-65.17a35.84,35.84,0,0,1,17.32-15.75q73.89-33.57,147.48-67.79c6.1-2.84,11.16-2,16.78.63q51.79,23.91,103.7,47.61c15.46,7.1,31,14,46.25,21.53,4,2,8.17,5.22,10.45,9,15.2,25.05,29.92,50.4,44.79,75.66,3.66,6.21-.35,9.18-5.15,11.45q-20.48,9.72-41.09,19.15-56.37,25.83-112.8,51.57c-10,4.59-10.8,4.49-16.31-4.83-10.17-17.21-20.18-34.52-31.13-53.28V727.86c9.74-4.4,19.33-8.68,28.87-13,36.95-16.92,73.83-34,110.9-50.64,6-2.68,7.86-6,7.62-12.34-.5-13.49-.14-27-.16-40.5,0-4.82.76-9.89,6.6-9.85s6.59,5,6.58,9.86c0,16.34-.06,32.69.19,49,.1,6.18-2.13,9.88-8,12.53q-76.14,34.59-152.05,69.7c-5.62,2.59-10.52,2.75-16.19.13q-76.29-35.24-152.75-70.09c-5.16-2.35-7.7-5.65-7.62-11.43.22-16.58.11-33.16.26-49.74,0-4.23-.26-9.18,6-9.22s7,4.56,7.08,9.32c.08,14.21.14,28.42,0,42.63-.06,4.35,1.43,7,5.46,8.8q69.69,31.79,139.28,63.76A21.38,21.38,0,0,0,845.8,727.45Zm-138-251.19c47.64,21.93,93.71,43.28,140,64.15,3.45,1.55,9,.78,12.67-.85,23.13-10.17,46-20.87,69-31.43,22.64-10.42,45.26-20.88,68.57-31.64-1.79-1-2.75-1.72-3.79-2.19-45.32-20.79-90.6-41.65-136.06-62.12-3.08-1.39-8-.9-11.22.54-31.28,14-62.4,28.31-93.55,42.57C738.63,462.05,723.87,468.87,707.81,476.26Zm-53.88,77.81,149.34,68.44,40.39-69.18L694.29,484.89C680.7,508.2,667.53,530.77,653.93,554.07Zm398.48,0c-13.75-23.54-27-46.26-40.41-69.15L862.68,553.37l40.37,69.15Z"/></svg>